<mxfile host="app.diagrams.net" agent="Mozilla/5.0 (Windows NT 10.0; Win64; x64) AppleWebKit/537.36 (KHTML, like Gecko) Chrome/135.0.0.0 Safari/537.36" version="26.2.9">
  <diagram name="Page-1" id="vyhXovBPfElxB7KIYALM">
    <mxGraphModel dx="1428" dy="795" grid="1" gridSize="10" guides="1" tooltips="1" connect="1" arrows="1" fold="1" page="1" pageScale="1" pageWidth="1000" pageHeight="1000" math="0" shadow="0">
      <root>
        <mxCell id="0" />
        <mxCell id="1" parent="0" />
        <mxCell id="E3dKNXOE1edQsssEmLTy-1" value="&lt;b&gt;Date&lt;/b&gt;" style="text;html=1;align=center;verticalAlign=middle;whiteSpace=wrap;rounded=0;fontSize=15;" vertex="1" parent="1">
          <mxGeometry x="40" y="20" width="60" height="30" as="geometry" />
        </mxCell>
        <mxCell id="E3dKNXOE1edQsssEmLTy-26" style="edgeStyle=orthogonalEdgeStyle;rounded=0;orthogonalLoop=1;jettySize=auto;html=1;exitX=0.5;exitY=1;exitDx=0;exitDy=0;entryX=0.5;entryY=0;entryDx=0;entryDy=0;" edge="1" parent="1" source="E3dKNXOE1edQsssEmLTy-4" target="E3dKNXOE1edQsssEmLTy-22">
          <mxGeometry relative="1" as="geometry" />
        </mxCell>
        <mxCell id="E3dKNXOE1edQsssEmLTy-4" value="All" style="rounded=1;whiteSpace=wrap;html=1;" vertex="1" parent="1">
          <mxGeometry x="520" y="80" width="120" height="60" as="geometry" />
        </mxCell>
        <mxCell id="E3dKNXOE1edQsssEmLTy-18" value="All" style="text;html=1;align=center;verticalAlign=middle;whiteSpace=wrap;rounded=0;fontSize=15;" vertex="1" parent="1">
          <mxGeometry x="40" y="95" width="60" height="30" as="geometry" />
        </mxCell>
        <mxCell id="E3dKNXOE1edQsssEmLTy-19" value="month" style="text;html=1;align=center;verticalAlign=middle;whiteSpace=wrap;rounded=0;fontSize=15;" vertex="1" parent="1">
          <mxGeometry x="40" y="385" width="60" height="30" as="geometry" />
        </mxCell>
        <mxCell id="E3dKNXOE1edQsssEmLTy-20" value="dayweek" style="text;html=1;align=center;verticalAlign=middle;whiteSpace=wrap;rounded=0;fontSize=15;" vertex="1" parent="1">
          <mxGeometry x="40" y="535" width="60" height="30" as="geometry" />
        </mxCell>
        <mxCell id="E3dKNXOE1edQsssEmLTy-27" style="edgeStyle=orthogonalEdgeStyle;rounded=0;orthogonalLoop=1;jettySize=auto;html=1;exitX=0.5;exitY=1;exitDx=0;exitDy=0;entryX=0.5;entryY=0;entryDx=0;entryDy=0;" edge="1" parent="1" source="E3dKNXOE1edQsssEmLTy-22" target="E3dKNXOE1edQsssEmLTy-23">
          <mxGeometry relative="1" as="geometry" />
        </mxCell>
        <mxCell id="E3dKNXOE1edQsssEmLTy-28" style="edgeStyle=orthogonalEdgeStyle;rounded=0;orthogonalLoop=1;jettySize=auto;html=1;exitX=0.5;exitY=1;exitDx=0;exitDy=0;entryX=0.5;entryY=0;entryDx=0;entryDy=0;" edge="1" parent="1" source="E3dKNXOE1edQsssEmLTy-22" target="E3dKNXOE1edQsssEmLTy-24">
          <mxGeometry relative="1" as="geometry" />
        </mxCell>
        <mxCell id="E3dKNXOE1edQsssEmLTy-29" style="edgeStyle=orthogonalEdgeStyle;rounded=0;orthogonalLoop=1;jettySize=auto;html=1;exitX=0.5;exitY=1;exitDx=0;exitDy=0;entryX=0.5;entryY=0;entryDx=0;entryDy=0;" edge="1" parent="1" source="E3dKNXOE1edQsssEmLTy-22" target="E3dKNXOE1edQsssEmLTy-25">
          <mxGeometry relative="1" as="geometry" />
        </mxCell>
        <mxCell id="E3dKNXOE1edQsssEmLTy-22" value="Year" style="rounded=1;whiteSpace=wrap;html=1;" vertex="1" parent="1">
          <mxGeometry x="520" y="220" width="120" height="60" as="geometry" />
        </mxCell>
        <mxCell id="E3dKNXOE1edQsssEmLTy-23" value="..." style="rounded=1;whiteSpace=wrap;html=1;" vertex="1" parent="1">
          <mxGeometry x="520" y="370" width="120" height="60" as="geometry" />
        </mxCell>
        <mxCell id="E3dKNXOE1edQsssEmLTy-39" style="edgeStyle=orthogonalEdgeStyle;rounded=0;orthogonalLoop=1;jettySize=auto;html=1;exitX=0.5;exitY=1;exitDx=0;exitDy=0;entryX=0.5;entryY=0;entryDx=0;entryDy=0;" edge="1" parent="1" source="E3dKNXOE1edQsssEmLTy-24" target="E3dKNXOE1edQsssEmLTy-30">
          <mxGeometry relative="1" as="geometry" />
        </mxCell>
        <mxCell id="E3dKNXOE1edQsssEmLTy-40" style="edgeStyle=orthogonalEdgeStyle;rounded=0;orthogonalLoop=1;jettySize=auto;html=1;exitX=0.5;exitY=1;exitDx=0;exitDy=0;entryX=0.5;entryY=0;entryDx=0;entryDy=0;" edge="1" parent="1" source="E3dKNXOE1edQsssEmLTy-24" target="E3dKNXOE1edQsssEmLTy-38">
          <mxGeometry relative="1" as="geometry" />
        </mxCell>
        <mxCell id="E3dKNXOE1edQsssEmLTy-41" style="edgeStyle=orthogonalEdgeStyle;rounded=0;orthogonalLoop=1;jettySize=auto;html=1;exitX=0.5;exitY=1;exitDx=0;exitDy=0;entryX=0.5;entryY=0;entryDx=0;entryDy=0;" edge="1" parent="1" source="E3dKNXOE1edQsssEmLTy-24" target="E3dKNXOE1edQsssEmLTy-34">
          <mxGeometry relative="1" as="geometry" />
        </mxCell>
        <mxCell id="E3dKNXOE1edQsssEmLTy-24" value="January" style="rounded=1;whiteSpace=wrap;html=1;" vertex="1" parent="1">
          <mxGeometry x="320" y="370" width="120" height="60" as="geometry" />
        </mxCell>
        <mxCell id="E3dKNXOE1edQsssEmLTy-42" style="edgeStyle=orthogonalEdgeStyle;rounded=0;orthogonalLoop=1;jettySize=auto;html=1;exitX=0.5;exitY=1;exitDx=0;exitDy=0;entryX=0.5;entryY=0;entryDx=0;entryDy=0;" edge="1" parent="1" source="E3dKNXOE1edQsssEmLTy-25" target="E3dKNXOE1edQsssEmLTy-35">
          <mxGeometry relative="1" as="geometry" />
        </mxCell>
        <mxCell id="E3dKNXOE1edQsssEmLTy-43" style="edgeStyle=orthogonalEdgeStyle;rounded=0;orthogonalLoop=1;jettySize=auto;html=1;exitX=0.5;exitY=1;exitDx=0;exitDy=0;entryX=0.5;entryY=0;entryDx=0;entryDy=0;" edge="1" parent="1" source="E3dKNXOE1edQsssEmLTy-25" target="E3dKNXOE1edQsssEmLTy-37">
          <mxGeometry relative="1" as="geometry" />
        </mxCell>
        <mxCell id="E3dKNXOE1edQsssEmLTy-44" style="edgeStyle=orthogonalEdgeStyle;rounded=0;orthogonalLoop=1;jettySize=auto;html=1;exitX=0.5;exitY=1;exitDx=0;exitDy=0;entryX=0.5;entryY=0;entryDx=0;entryDy=0;" edge="1" parent="1" source="E3dKNXOE1edQsssEmLTy-25" target="E3dKNXOE1edQsssEmLTy-36">
          <mxGeometry relative="1" as="geometry" />
        </mxCell>
        <mxCell id="E3dKNXOE1edQsssEmLTy-25" value="December" style="rounded=1;whiteSpace=wrap;html=1;" vertex="1" parent="1">
          <mxGeometry x="720" y="370" width="120" height="60" as="geometry" />
        </mxCell>
        <mxCell id="E3dKNXOE1edQsssEmLTy-30" value="Monday" style="rounded=1;whiteSpace=wrap;html=1;" vertex="1" parent="1">
          <mxGeometry x="240" y="520" width="70" height="60" as="geometry" />
        </mxCell>
        <mxCell id="E3dKNXOE1edQsssEmLTy-34" value="Sunday" style="rounded=1;whiteSpace=wrap;html=1;" vertex="1" parent="1">
          <mxGeometry x="450" y="520" width="70" height="60" as="geometry" />
        </mxCell>
        <mxCell id="E3dKNXOE1edQsssEmLTy-35" value="Monday" style="rounded=1;whiteSpace=wrap;html=1;" vertex="1" parent="1">
          <mxGeometry x="640" y="520" width="70" height="60" as="geometry" />
        </mxCell>
        <mxCell id="E3dKNXOE1edQsssEmLTy-36" value="Sunday" style="rounded=1;whiteSpace=wrap;html=1;" vertex="1" parent="1">
          <mxGeometry x="850" y="520" width="70" height="60" as="geometry" />
        </mxCell>
        <mxCell id="E3dKNXOE1edQsssEmLTy-37" value="..." style="rounded=1;whiteSpace=wrap;html=1;" vertex="1" parent="1">
          <mxGeometry x="745" y="520" width="70" height="60" as="geometry" />
        </mxCell>
        <mxCell id="E3dKNXOE1edQsssEmLTy-38" value="..." style="rounded=1;whiteSpace=wrap;html=1;" vertex="1" parent="1">
          <mxGeometry x="345" y="520" width="70" height="60" as="geometry" />
        </mxCell>
        <mxCell id="E3dKNXOE1edQsssEmLTy-45" value="year" style="text;html=1;align=center;verticalAlign=middle;whiteSpace=wrap;rounded=0;fontSize=15;" vertex="1" parent="1">
          <mxGeometry x="40" y="235" width="60" height="30" as="geometry" />
        </mxCell>
      </root>
    </mxGraphModel>
  </diagram>
</mxfile>
